<?xml version="1.0" encoding="UTF-8"?>
<svg xmlns="http://www.w3.org/2000/svg" width="1200" height="300" viewBox="0 0 1200 300" fill="none">
  <!-- Background -->
  <rect width="1200" height="300" fill="#7c3aed" />
  
  <!-- Book icon -->
  <g transform="translate(100, 50) scale(2)">
    <!-- Open book -->
    <path d="M12 21.6C12 20.0568 13.2569 18.8 14.8 18.8H49.2C50.7431 18.8 52 20.0568 52 21.6V46.4C52 47.9432 50.7431 49.2 49.2 49.2H14.8C13.2569 49.2 12 47.9432 12 46.4V21.6Z" fill="white" />
    
    <!-- Book spine -->
    <path d="M31.5 18.8V49.2" stroke="#7c3aed" stroke-width="2.8" />
    
    <!-- Book pages - left side -->
    <path d="M17.5 26.6H28" stroke="#a78bfa" stroke-width="2.1" stroke-linecap="round" />
    <path d="M17.5 32H28" stroke="#a78bfa" stroke-width="2.1" stroke-linecap="round" />
    <path d="M17.5 37.4H28" stroke="#a78bfa" stroke-width="2.1" stroke-linecap="round" />
    <path d="M17.5 42.8H28" stroke="#a78bfa" stroke-width="2.1" stroke-linecap="round" />
    
    <!-- Book pages - right side -->
    <path d="M35 26.6H47.5" stroke="#a78bfa" stroke-width="2.1" stroke-linecap="round" />
    <path d="M35 32H47.5" stroke="#a78bfa" stroke-width="2.1" stroke-linecap="round" />
    <path d="M35 37.4H47.5" stroke="#a78bfa" stroke-width="2.1" stroke-linecap="round" />
    <path d="M35 42.8H47.5" stroke="#a78bfa" stroke-width="2.1" stroke-linecap="round" />
  </g>
  
  <!-- Text -->
  <text x="300" y="170" font-family="Nunito, sans-serif" font-weight="800" font-size="80" fill="white">AI Storyteller</text>
  <text x="305" y="220" font-family="Nunito, sans-serif" font-weight="400" font-size="30" fill="white">Create magical stories with AI</text>
  
  <!-- Stars/Sparkles -->
  <path d="M850 80L860 100L880 80L860 60L850 80Z" fill="#fef08a" />
  <path d="M950 50L960 70L980 50L960 30L950 50Z" fill="#fef08a" />
  <path d="M1050 120L1060 140L1080 120L1060 100L1050 120Z" fill="#fef08a" />
  <path d="M900 230L910 250L930 230L910 210L900 230Z" fill="#fef08a" />
  
  <!-- Larger star -->
  <path d="M1000 100L1010 130H1040L1015 150L1025 180L1000 160L975 180L985 150L960 130H990L1000 100Z" fill="#fef08a" />
</svg> 