<?xml version="1.0" encoding="UTF-8"?>
<svg width="1200" height="240" viewBox="0 0 1200 240" xmlns="http://www.w3.org/2000/svg">
  <!-- Background gradient -->
  <linearGradient id="bg-gradient" x1="0%" y1="0%" x2="100%" y2="0%">
    <stop offset="0%" stop-color="#4DC7FF"/>
    <stop offset="25%" stop-color="#9B5DE5"/>
    <stop offset="50%" stop-color="#FF6B6B"/>
    <stop offset="75%" stop-color="#FFD166"/>
    <stop offset="100%" stop-color="#06D6A0"/>
  </linearGradient>
  
  <!-- Main background rectangle -->
  <rect width="1200" height="240" fill="url(#bg-gradient)" rx="20" ry="20"/>
  
  <!-- Playful pattern -->
  <g opacity="0.2" fill="#FFFFFF">
    <!-- Stars -->
    <path d="M100,40 L105,50 L116,52 L108,60 L110,70 L100,65 L90,70 L92,60 L84,52 L95,50 Z" />
    <path d="M900,60 L905,70 L916,72 L908,80 L910,90 L900,85 L890,90 L892,80 L884,72 L895,70 Z" />
    <path d="M200,180 L205,190 L216,192 L208,200 L210,210 L200,205 L190,210 L192,200 L184,192 L195,190 Z" />
    <path d="M1050,160 L1055,170 L1066,172 L1058,180 L1060,190 L1050,185 L1040,190 L1042,180 L1034,172 L1045,170 Z" />

    <!-- Circles -->
    <circle cx="300" cy="50" r="15" />
    <circle cx="800" cy="180" r="20" />
    <circle cx="500" cy="200" r="12" />
    <circle cx="1100" cy="70" r="18" />
    <circle cx="700" cy="30" r="10" />
    
    <!-- Squares -->
    <rect x="400" y="160" width="20" height="20" rx="2" ry="2" />
    <rect x="950" y="120" width="25" height="25" rx="2" ry="2" />
    <rect x="600" y="180" width="15" height="15" rx="2" ry="2" />
    <rect x="250" y="120" width="22" height="22" rx="2" ry="2" />
    <rect x="750" y="50" width="18" height="18" rx="2" ry="2" />
  </g>
  
  <!-- Character silhouettes -->
  <g fill="#FFFFFF" opacity="0.25">
    <!-- Tree -->
    <path d="M150,200 L170,200 L160,170 L175,170 L160,140 L170,140 L155,110 L165,110 L150,80 L135,110 L145,110 L130,140 L140,140 L125,170 L140,170 L130,200 Z" />
    
    <!-- Rocket -->
    <path d="M1000,160 C1000,120 980,100 950,80 C970,60 990,80 1000,100 C1010,80 1030,60 1050,80 C1020,100 1000,120 1000,160 Z M990,160 L990,180 L1010,180 L1010,160 Z" />
    
    <!-- Castle -->
    <path d="M600,200 L600,150 L590,150 L590,160 L580,160 L580,150 L570,150 L570,170 L560,170 L560,150 L550,150 L550,200 Z M550,150 L550,140 L560,130 L570,140 L580,130 L590,140 L600,150 Z" />
  </g>
  
  <!-- Colorful decorative elements -->
  <g>
    <circle cx="100" cy="100" r="30" fill="#FFD166" opacity="0.6" />
    <circle cx="1100" cy="120" r="35" fill="#FF6B6B" opacity="0.6" />
    <circle cx="400" cy="60" r="25" fill="#06D6A0" opacity="0.6" />
    <circle cx="800" cy="50" r="20" fill="#9B5DE5" opacity="0.6" />
    <circle cx="600" cy="80" r="28" fill="#4DC7FF" opacity="0.6" />
    <circle cx="300" cy="160" r="22" fill="#FF6B6B" opacity="0.6" />
    <circle cx="900" cy="180" r="26" fill="#06D6A0" opacity="0.6" />
  </g>
</svg> 