<?xml version="1.0" encoding="UTF-8"?>
<svg width="400" height="400" viewBox="0 0 400 400" xmlns="http://www.w3.org/2000/svg">
  <!-- Colorful grid background -->
  <defs>
    <pattern id="smallGrid" width="20" height="20" patternUnits="userSpaceOnUse">
      <path d="M 20 0 L 0 0 0 20" fill="none" stroke="#e0f2fe" stroke-width="1.5" />
    </pattern>
    <pattern id="grid" width="80" height="80" patternUnits="userSpaceOnUse">
      <rect width="80" height="80" fill="url(#smallGrid)" />
      <path d="M 80 0 L 0 0 0 80" fill="none" stroke="#bfdbfe" stroke-width="2" />
    </pattern>
  </defs>
  <rect width="100%" height="100%" fill="url(#grid)" />
  
  <!-- Fun shapes -->
  <circle cx="40" cy="40" r="12" fill="#fef08a" fill-opacity="0.4" />
  <circle cx="120" cy="80" r="15" fill="#fbcfe8" fill-opacity="0.4" />
  <circle cx="200" cy="40" r="10" fill="#bae6fd" fill-opacity="0.4" />
  <circle cx="280" cy="80" r="14" fill="#d8b4fe" fill-opacity="0.4" />
  <circle cx="360" cy="40" r="11" fill="#a7f3d0" fill-opacity="0.4" />
  
  <circle cx="40" cy="120" r="10" fill="#a7f3d0" fill-opacity="0.4" />
  <circle cx="120" cy="160" r="13" fill="#fef08a" fill-opacity="0.4" />
  <circle cx="200" cy="120" r="16" fill="#d8b4fe" fill-opacity="0.4" />
  <circle cx="280" cy="160" r="12" fill="#bae6fd" fill-opacity="0.4" />
  <circle cx="360" cy="120" r="9" fill="#fbcfe8" fill-opacity="0.4" />
  
  <circle cx="40" cy="200" r="14" fill="#bae6fd" fill-opacity="0.4" />
  <circle cx="120" cy="240" r="11" fill="#d8b4fe" fill-opacity="0.4" />
  <circle cx="200" cy="200" r="13" fill="#a7f3d0" fill-opacity="0.4" />
  <circle cx="280" cy="240" r="10" fill="#fef08a" fill-opacity="0.4" />
  <circle cx="360" cy="200" r="15" fill="#fbcfe8" fill-opacity="0.4" />
  
  <circle cx="40" cy="280" r="9" fill="#fbcfe8" fill-opacity="0.4" />
  <circle cx="120" cy="320" r="12" fill="#a7f3d0" fill-opacity="0.4" />
  <circle cx="200" cy="280" r="15" fill="#fef08a" fill-opacity="0.4" />
  <circle cx="280" cy="320" r="13" fill="#d8b4fe" fill-opacity="0.4" />
  <circle cx="360" cy="280" r="10" fill="#bae6fd" fill-opacity="0.4" />
  
  <circle cx="40" cy="360" r="13" fill="#d8b4fe" fill-opacity="0.4" />
  <circle cx="120" cy="400" r="10" fill="#bae6fd" fill-opacity="0.4" />
  <circle cx="200" cy="360" r="11" fill="#fbcfe8" fill-opacity="0.4" />
  <circle cx="280" cy="400" r="9" fill="#a7f3d0" fill-opacity="0.4" />
  <circle cx="360" cy="360" r="14" fill="#fef08a" fill-opacity="0.4" />
</svg> 